<svg width="32" height="32" viewBox="0 0 32 32" fill="none" xmlns="http://www.w3.org/2000/svg">
<path d="M26.8599 2.15625H5.10883C2.83466 2.15625 0.984375 4.00616 0.984375 6.2807V19.5919C0.984375 21.8613 2.8266 23.7083 5.09418 23.7164V29.7568L13.775 23.7164H26.8599C29.1341 23.7164 30.9844 21.8661 30.9844 19.5919V6.2807C30.9844 4.00616 29.1341 2.15625 26.8599 2.15625ZM29.7143 19.5919C29.7143 20.8967 28.407 22.204 27.102 22.204H13.7143L6.53061 27.102V22.204H4.57143C3.26644 22.204 2.28571 20.8967 2.28571 19.5919V6.20404C2.28571 4.89887 3.80383 3.6986 5.10883 3.6986L26.8599 3.5918C28.1649 3.5918 29.7143 4.97552 29.7143 6.2807V19.5919Z" fill="#4F4F4F"/>
</svg>
