<svg width="101" height="100" viewBox="0 0 101 100" fill="none" xmlns="http://www.w3.org/2000/svg">
<path d="M93.6758 0H8.32422C4.28522 0 1 3.28522 1 7.32422V29.6783C1 30.4871 1.65613 31.1432 2.46484 31.1432C3.27356 31.1432 3.92969 30.4871 3.92969 29.6783V7.32422C3.92969 4.90112 5.90112 2.92969 8.32422 2.92969H93.6758C96.0989 2.92969 98.0703 4.90112 98.0703 7.32422V92.6758C98.0703 95.0989 96.0989 97.0703 93.6758 97.0703H8.32422C5.90112 97.0703 3.92969 95.0989 3.92969 92.6758V36.4212C3.92969 35.6125 3.27356 34.9564 2.46484 34.9564C1.65613 34.9564 1 35.6125 1 36.4212V92.6758C1 96.7148 4.28522 100 8.32422 100H93.6758C97.7148 100 101 96.7148 101 92.6758V7.32422C101 3.28522 97.7148 0 93.6758 0Z" fill="white"/>
<path d="M86.3211 45.3331C87.1306 45.3331 87.7859 44.677 87.7859 43.8683V33.0887C87.7859 22.1298 78.8702 13.2141 67.9114 13.2141H34.0887C23.1299 13.2141 14.2142 22.1298 14.2142 33.0887V66.9113C14.2142 77.8702 23.1299 86.7867 34.0887 86.7867H67.9114C78.8702 86.7867 87.7859 77.8702 87.7859 66.9113V50.6111C87.7859 49.8016 87.1306 49.1463 86.3211 49.1463C85.5124 49.1463 84.8563 49.8016 84.8563 50.6111V66.9113C84.8563 76.255 77.2551 83.857 67.9114 83.857H34.0887C24.745 83.857 17.1439 76.255 17.1439 66.9113V33.0887C17.1439 23.745 24.745 16.1438 34.0887 16.1438H67.9114C77.2551 16.1438 84.8563 23.745 84.8563 33.0887V43.8675C84.8563 44.677 85.5124 45.3331 86.3211 45.3331Z" fill="white"/>
<path d="M55.2679 78.7781H67.9114C74.4551 78.7781 79.7781 73.455 79.7781 66.9113V33.0887C79.7781 26.545 74.4551 21.2219 67.9114 21.2219H34.0887C27.545 21.2219 22.222 26.545 22.222 33.0887V66.9113C22.222 73.455 27.545 78.7781 34.0887 78.7781H48.5251C49.3346 78.7781 49.9899 78.1227 49.9899 77.3132C49.9899 76.5045 49.3346 75.8484 48.5251 75.8484H34.0887C29.1609 75.8484 25.1517 71.8391 25.1517 66.9113V33.0887C25.1517 28.1609 29.1609 24.1516 34.0887 24.1516H67.9114C72.8392 24.1516 76.8485 28.1609 76.8485 33.0887V66.9113C76.8485 71.8391 72.8392 75.8484 67.9114 75.8484H55.2679C54.4592 75.8484 53.8031 76.5045 53.8031 77.3132C53.8031 78.1227 54.4592 78.7781 55.2679 78.7781Z" fill="white"/>
<path d="M51 32.1342C41.1489 32.1342 33.1342 40.1489 33.1342 50C33.1342 59.851 41.1489 67.8657 51 67.8657C60.851 67.8657 68.8657 59.851 68.8657 50C68.8657 40.1489 60.851 32.1342 51 32.1342ZM51 64.936C42.764 64.936 36.0639 58.2359 36.0639 50C36.0639 41.764 42.764 35.0639 51 35.0639C59.2359 35.0639 65.936 41.764 65.936 50C65.936 58.2359 59.2359 64.936 51 64.936Z" fill="white"/>
<path d="M51.0002 39.9094C45.4361 39.9094 40.9096 44.4359 40.9096 50C40.9096 55.5641 45.4361 60.0914 51.0002 60.0914C56.5644 60.0914 61.0909 55.5641 61.0909 50C61.0909 44.4359 56.5644 39.9094 51.0002 39.9094ZM51.0002 57.1609C47.0513 57.1609 43.8393 53.949 43.8393 50C43.8393 46.051 47.0513 42.8391 51.0002 42.8391C54.9492 42.8391 58.1612 46.051 58.1612 50C58.1612 53.949 54.9492 57.1609 51.0002 57.1609Z" fill="white"/>
<path d="M73.3297 32.0312C73.3297 29.4113 71.1981 27.2797 68.5781 27.2797C65.9582 27.2797 63.8265 29.4113 63.8265 32.0312C63.8265 34.6512 65.9582 36.7828 68.5781 36.7828C71.1981 36.7828 73.3297 34.6512 73.3297 32.0312ZM66.7562 32.0312C66.7562 31.0265 67.5733 30.2094 68.5781 30.2094C69.5829 30.2094 70.4 31.0265 70.4 32.0312C70.4 33.036 69.5822 33.8531 68.5781 33.8531C67.5733 33.8531 66.7562 33.036 66.7562 32.0312Z" fill="white"/>
</svg>
