<svg width="19" height="19" viewBox="0 0 19 19" fill="none" xmlns="http://www.w3.org/2000/svg">
<g clip-path="url(#clip0)">
<path d="M18.3121 4.75069C18.1742 4.5741 17.9626 4.47089 17.7386 4.47089H3.8873L3.6814 2.17716C3.64773 1.80206 3.33336 1.51465 2.95677 1.51465H1.47858C1.07677 1.51465 0.751038 1.84038 0.751038 2.24219C0.751038 2.644 1.07677 2.96973 1.47858 2.96973H2.29163L3.08908 11.854C3.08925 11.8645 3.08873 11.8748 3.08932 11.8853C3.09095 11.9132 3.09459 11.9405 3.09923 11.9674L3.1284 12.2923C3.12896 12.2984 3.12958 12.3045 3.13031 12.3106C3.21872 13.0766 3.61017 13.7403 4.17624 14.1887C3.88293 14.5633 3.70742 15.0343 3.70742 15.5458C3.70742 16.762 4.69691 17.7515 5.91312 17.7515C7.12936 17.7515 8.11886 16.762 8.11886 15.5458C8.11886 15.2823 8.07226 15.0296 7.98717 14.7951H11.9691C11.884 15.0296 11.8374 15.2823 11.8374 15.5458C11.8374 16.762 12.8269 17.7515 14.0432 17.7515C15.2594 17.7515 16.2489 16.762 16.2489 15.5458C16.2489 14.3295 15.2594 13.34 14.0432 13.34H5.91804C5.36539 13.34 4.88379 13.0066 4.67592 12.5208L16.303 11.8375C16.6204 11.8189 16.889 11.5962 16.9661 11.2877L18.4444 5.37485C18.4987 5.15756 18.4499 4.92731 18.3121 4.75069Z" fill="white"/>
<path d="M18.3121 4.75069C18.1742 4.5741 17.9626 4.47089 17.7386 4.47089H3.8873L3.6814 2.17716C3.64773 1.80206 3.33336 1.51465 2.95677 1.51465H1.47858C1.07677 1.51465 0.751038 1.84038 0.751038 2.24219C0.751038 2.644 1.07677 2.96973 1.47858 2.96973H2.29163L3.08908 11.854C3.08925 11.8645 3.08873 11.8748 3.08932 11.8853C3.09095 11.9132 3.09459 11.9405 3.09923 11.9674L3.1284 12.2923C3.12896 12.2984 3.12958 12.3045 3.13031 12.3106C3.21872 13.0766 3.61017 13.7403 4.17624 14.1887C3.88293 14.5633 3.70742 15.0343 3.70742 15.5458C3.70742 16.762 4.69691 17.7515 5.91312 17.7515C7.12936 17.7515 8.11886 16.762 8.11886 15.5458C8.11886 15.2823 8.07226 15.0296 7.98717 14.7951H11.9691C11.884 15.0296 11.8374 15.2823 11.8374 15.5458C11.8374 16.762 12.8269 17.7515 14.0432 17.7515C15.2594 17.7515 16.2489 16.762 16.2489 15.5458C16.2489 14.3295 15.2594 13.34 14.0432 13.34H5.91804C5.36539 13.34 4.88379 13.0066 4.67592 12.5208L16.303 11.8375C16.6204 11.8189 16.889 11.5962 16.9661 11.2877L18.4444 5.37485C18.4987 5.15756 18.4499 4.92731 18.3121 4.75069Z" fill="url(#paint0_linear)"/>
</g>
<defs>
<linearGradient id="paint0_linear" x1="12.0243" y1="14.5533" x2="1.56694" y2="5.0455" gradientUnits="userSpaceOnUse">
<stop stop-color="#B042A4"/>
<stop offset="1" stop-color="#E680DA"/>
</linearGradient>
<clipPath id="clip0">
<rect width="17.7151" height="17.7151" fill="white" transform="translate(0.751038 0.775513)"/>
</clipPath>
</defs>
</svg>
