<svg width="19" height="18" viewBox="0 0 19 18" fill="none" xmlns="http://www.w3.org/2000/svg">
<g clip-path="url(#clip0)">
<path d="M18.2545 3.98799C18.1167 3.81141 17.9051 3.7082 17.681 3.7082H3.82974L3.62385 1.41447C3.59017 1.03937 3.27581 0.751953 2.89922 0.751953H1.42102C1.01921 0.751953 0.693481 1.07768 0.693481 1.4795C0.693481 1.88131 1.01921 2.20704 1.42102 2.20704H2.23407L3.03152 11.0913C3.0317 11.1018 3.03118 11.1121 3.03177 11.1226C3.0334 11.1505 3.03703 11.1778 3.04168 11.2047L3.07085 11.5296C3.0714 11.5357 3.07202 11.5418 3.07275 11.5479C3.16117 12.3139 3.55262 12.9776 4.11868 13.426C3.82538 13.8006 3.64987 14.2716 3.64987 14.7831C3.64987 15.9993 4.63936 16.9888 5.85557 16.9888C7.07181 16.9888 8.0613 15.9993 8.0613 14.7831C8.0613 14.5196 8.0147 14.2669 7.92962 14.0324H11.9116C11.8264 14.2669 11.7799 14.5196 11.7799 14.7831C11.7799 15.9993 12.7694 16.9888 13.9856 16.9888C15.2018 16.9888 16.1913 15.9993 16.1913 14.7831C16.1913 13.5668 15.2018 12.5774 13.9856 12.5774H5.86049C5.30783 12.5774 4.82623 12.2439 4.61836 11.7581L16.2455 11.0748C16.5629 11.0562 16.8314 10.8335 16.9086 10.525L18.3869 4.61215C18.4412 4.39486 18.3924 4.16461 18.2545 3.98799Z" fill="white"/>
</g>
<defs>
<clipPath id="clip0">
<rect width="17.7151" height="17.7151" fill="white" transform="translate(0.693481 0.0128174)"/>
</clipPath>
</defs>
</svg>
