<svg width="100" height="100" viewBox="0 0 100 100" fill="none" xmlns="http://www.w3.org/2000/svg">
<path d="M41.543 85.0781C35.6055 85.0781 30.0195 82.7734 25.8008 78.5547C21.6016 74.3555 19.2773 68.7695 19.2773 62.8125C19.2773 56.875 21.6016 51.2891 25.8008 47.0703C30 42.8711 35.586 40.5469 41.543 40.5469C42.6563 40.5469 43.7891 40.625 44.8828 40.8008C45.6055 40.918 46.1328 41.5234 46.1328 42.2461V53.3594C46.1328 53.8281 45.8985 54.2773 45.5274 54.5508C45.1367 54.8242 44.6485 54.9023 44.1992 54.7461C43.3399 54.4531 42.4414 54.3164 41.543 54.3164C36.875 54.3164 33.0664 58.125 33.0664 62.793C33.0664 67.4609 36.875 71.2695 41.543 71.2695C42.4414 71.2695 43.3399 71.1328 44.1992 70.8398C47.6563 69.6875 49.9805 66.4844 50 62.832V16.3477C50 15.5469 50.6641 14.8828 51.4649 14.8828H62.3243C63.125 14.8828 63.7891 15.5469 63.7891 16.3477C63.7891 24.8633 70.7227 31.7773 79.2383 31.7773C80.0391 31.7773 80.7032 32.4414 80.7032 33.2422V44.1406C80.7032 44.9414 80.0391 45.6055 79.2383 45.6055C75.293 45.6055 71.4649 44.8242 67.8516 43.3008C66.4453 42.6953 65.0782 41.9922 63.7891 41.1914V62.9297C63.7696 68.8477 61.4453 74.3945 57.2657 78.5742C53.8672 81.9726 49.5899 84.1406 44.8828 84.8438C43.7891 85 42.6563 85.0781 41.543 85.0781ZM41.543 43.5156C36.3867 43.5156 31.5234 45.5273 27.8906 49.1797C24.2383 52.832 22.2266 57.6758 22.2266 62.832C22.2266 67.9883 24.2383 72.8516 27.8906 76.4844C31.543 80.1367 36.3867 82.1484 41.543 82.1484C42.5195 82.1484 43.4961 82.0703 44.4531 81.9336C48.5352 81.3281 52.2657 79.4336 55.2149 76.4844C58.8477 72.8516 60.8594 68.0273 60.8789 62.9102V38.3789C60.8789 37.8125 61.1914 37.3047 61.6992 37.0703C62.2071 36.8164 62.793 36.875 63.2422 37.2266C65.0196 38.5938 66.9532 39.7266 69.0235 40.6055C71.8164 41.7969 74.7657 42.4609 77.793 42.6367V34.707C68.8282 34.0039 61.6602 26.8164 60.9375 17.8711H52.9297V62.8906C52.9102 67.793 49.7656 72.1289 45.1172 73.6719C43.9453 74.0625 42.7539 74.2578 41.5235 74.2578C35.2344 74.2578 30.1172 69.1406 30.1172 62.8516C30.1172 56.5625 35.2344 51.4453 41.5235 51.4453C42.0899 51.4453 42.6367 51.4844 43.1836 51.5625V43.5937C42.6563 43.5352 42.0899 43.5156 41.543 43.5156Z" fill="white"/>
<path d="M2.92969 18.75V92.6758C2.92969 95.0977 4.90234 97.0703 7.32422 97.0703H92.6758C95.0977 97.0703 97.0703 95.0977 97.0703 92.6758V71.6406C97.0703 70.8398 97.7344 70.1758 98.5352 70.1758C99.3359 70.1758 100 70.8398 100 71.6406V92.6758C100 96.7188 96.7188 100 92.6758 100H7.32422C3.28125 100 0 96.7188 0 92.6758V18.75C0 17.9492 0.644531 17.3047 1.42578 17.2851C2.26562 17.2656 2.92969 17.9297 2.92969 18.75Z" fill="white"/>
<path d="M0 9.04297V7.32422C0 3.28125 3.28125 0 7.32422 0H92.6758C96.7188 0 100 3.28125 100 7.32422V61.9727C100 62.7734 99.3359 63.4375 98.5352 63.4375C97.7344 63.4375 97.0703 62.7734 97.0703 61.9727V7.32422C97.0703 4.90234 95.0977 2.92969 92.6758 2.92969H7.32422C4.90234 2.92969 2.92969 4.90234 2.92969 7.32422V9.04297C2.92969 9.84375 2.26562 10.5078 1.46484 10.5078C0.664062 10.5078 0 9.84375 0 9.04297Z" fill="white"/>
</svg>
