<svg width="107" height="105" viewBox="0 0 107 105" fill="none" xmlns="http://www.w3.org/2000/svg">
<g filter="url(#filter0_d)">
<g clip-path="url(#clip0)">
<path d="M42.1669 97H11.1657C7.2141 97 4 93.8133 4 89.8955V7.10449C4 3.18666 7.2141 0 11.1657 0H33.377C34.1689 0 34.8101 0.636444 34.8101 1.4209C34.8101 2.20535 34.1689 2.8418 33.377 2.8418H11.1657C8.79502 2.8418 6.86627 4.75409 6.86627 7.10449V89.8955C6.86627 92.2459 8.79502 94.1582 11.1657 94.1582H42.1669C42.9588 94.1582 43.6 94.7946 43.6 95.5791C43.6 96.3636 42.9588 97 42.1669 97Z" fill="white"/>
<path d="M101.543 27.16C100.738 27.16 100.086 26.5101 100.086 25.7075V7.26264C100.086 4.85992 98.125 2.90506 95.7149 2.90506H40.1071C39.3019 2.90506 38.65 2.25444 38.65 1.45253C38.65 0.650611 39.3019 0 40.1071 0H95.7149C99.7323 0 103 3.2576 103 7.26264V25.7075C103 26.5101 102.348 27.16 101.543 27.16Z" fill="white"/>
<path d="M95.7114 97H49.0177C48.2122 97 47.56 96.3617 47.56 95.5749C47.56 94.7881 48.2122 94.1498 49.0177 94.1498H95.7114C98.1227 94.1498 100.085 92.2319 100.085 89.8745V31.4951C100.085 30.7076 100.737 30.07 101.542 30.07C102.348 30.07 103 30.7076 103 31.4951V89.8745C103 93.8039 99.7307 97 95.7114 97Z" fill="white"/>
<path d="M36.9802 71.78C36.3918 71.78 35.8049 71.622 35.2817 71.3083C34.3165 70.7288 33.7402 69.7242 33.7402 68.6207V28.3794C33.7402 27.2759 34.3165 26.2713 35.2817 25.6918C36.247 25.1131 37.4283 25.0637 38.4405 25.5604L79.4769 45.681C80.5771 46.2206 81.2602 47.3006 81.2602 48.5001C81.2602 49.6996 80.5771 50.7795 79.4761 51.3191L38.4405 71.4397C37.9772 71.667 37.4776 71.78 36.9802 71.78ZM36.9809 28.0554C36.9112 28.0554 36.852 28.079 36.8088 28.1056C36.7368 28.1484 36.6519 28.2311 36.6519 28.3794V68.6207C36.6519 68.769 36.7368 68.8517 36.8088 68.8945C36.8808 68.9381 36.9946 68.975 37.1311 68.9078L78.1666 48.7872C78.288 48.7281 78.3486 48.6314 78.3486 48.5001C78.3486 48.3687 78.288 48.272 78.1674 48.2129L37.1311 28.0923C37.0772 28.0657 37.0264 28.0554 36.9809 28.0554Z" fill="white"/>
</g>
</g>
<defs>
<filter id="filter0_d" x="-1" y="0" width="108" height="108" filterUnits="userSpaceOnUse" color-interpolation-filters="sRGB">
<feFlood flood-opacity="0" result="BackgroundImageFix"/>
<feColorMatrix in="SourceAlpha" type="matrix" values="0 0 0 0 0 0 0 0 0 0 0 0 0 0 0 0 0 0 127 0"/>
<feOffset dy="4"/>
<feGaussianBlur stdDeviation="2"/>
<feColorMatrix type="matrix" values="0 0 0 0 0 0 0 0 0 0 0 0 0 0 0 0 0 0 0.25 0"/>
<feBlend mode="normal" in2="BackgroundImageFix" result="effect1_dropShadow"/>
<feBlend mode="normal" in="SourceGraphic" in2="effect1_dropShadow" result="shape"/>
</filter>
<clipPath id="clip0">
<rect width="99" height="97" fill="white" transform="translate(4)"/>
</clipPath>
</defs>
</svg>
